<?xml version="1.0" encoding="UTF-8"?>
<svg xmlns="http://www.w3.org/2000/svg" xmlns:xlink="http://www.w3.org/1999/xlink" width="3000" height="3000" viewBox="0 0 3000 3000">
<path fill-rule="evenodd" fill="#291263" fill-opacity="1" d="M 1138.378906 994.351562 C 1138.378906 994.351562 1094.710938 994.351562 1079.109375 1001.929688 C 1063.511719 1009.5 1041.21875 1025.101562 1031.421875 1029.558594 C 1021.609375 1034.019531 992.199219 1040.261719 976.152344 1046.488281 C 960.109375 1052.730469 935.152344 1059.421875 916.878906 1075.910156 C 880.144531 1109.058594 733.417969 1282.878906 714.984375 1331.730469 C 710.527344 1343.539062 708.746094 1352.011719 709.636719 1358.921875 C 710.527344 1365.828125 718.328125 1375.859375 718.773438 1379.421875 C 719.21875 1382.988281 718.4375 1403.050781 721.671875 1409.058594 C 724.898438 1415.078125 727.128906 1417.371094 727.910156 1420.210938 C 728.6875 1423.039062 728.566406 1427.019531 728.800781 1428.339844 C 743.953125 1514.210938 882.207031 1535.648438 934.039062 1558.921875 C 944.957031 1563.820312 955.65625 1568.511719 960.113281 1576.75 C 964.566406 1585 962.339844 1603.488281 962.785156 1611.738281 C 982.335938 1973.351562 1204.789062 2120.929688 1204.789062 2120.929688 C 1211.929688 2133.410156 1236.878906 2262.65625 1230.640625 2298.3125 C 1224.410156 2333.96875 1219.949219 2337.980469 1207.46875 2349.566406 C 1194.988281 2361.152344 1158.671875 2375.859375 1150.421875 2387.003906 C 1142.179688 2398.144531 1133.261719 2409.285156 1127.921875 2418.425781 C 1122.570312 2427.5625 1117.890625 2441.824219 1117.441406 2444.050781 C 1117 2446.28125 1113.878906 2452.296875 1116.328125 2458.535156 C 1118.78125 2464.777344 1125.691406 2467.003906 1125.691406 2467.003906 C 1125.691406 2467.003906 1132.820312 2471.015625 1136.160156 2471.460938 C 1139.5 2471.90625 1173.378906 2469.789062 1188.078125 2471.460938 C 1202.789062 2473.132812 1238 2471.523438 1241.121094 2471.523438 C 1244.238281 2471.523438 1245.578125 2470.902344 1245.578125 2470.902344 C 1245.578125 2470.902344 1246.910156 2472.21875 1257.828125 2472.21875 C 1268.75 2472.21875 1333.378906 2472.21875 1333.378906 2472.21875 C 1333.378906 2472.21875 1348.640625 2479.925781 1366.019531 2479.925781 C 1383.410156 2479.925781 1405.710938 2479.925781 1426.640625 2479.925781 C 1447.558594 2479.925781 1603.351562 2479.925781 1613.601562 2479.925781 C 1623.851562 2479.925781 1625.410156 2478.144531 1626.300781 2473.6875 C 1627.191406 2469.230469 1621.839844 2466.109375 1620.058594 2459.425781 C 1618.28125 2452.738281 1623.851562 2399.257812 1623.851562 2399.257812 C 1623.851562 2399.257812 1640.789062 2394.355469 1661.058594 2398.589844 C 1681.339844 2402.820312 1706.300781 2409.0625 1716.78125 2414.410156 C 1727.25 2419.757812 1757.558594 2434.574219 1757.558594 2434.574219 C 1757.558594 2434.574219 1756.441406 2439.8125 1756.328125 2441.929688 C 1756.21875 2444.046875 1756.21875 2444.046875 1756.21875 2444.046875 L 1756.441406 2446.164062 C 1756.441406 2446.164062 1744.070312 2444.828125 1739.28125 2446.722656 C 1734.488281 2448.617188 1724.238281 2455.859375 1722.679688 2459.199219 C 1721.121094 2462.542969 1721.570312 2472.683594 1724.351562 2475.578125 C 1727.140625 2478.476562 1734.488281 2479.925781 1734.488281 2479.925781 C 1734.488281 2479.925781 1781.070312 2479.925781 1785.96875 2479.925781 C 1790.871094 2479.925781 1798.449219 2475.355469 1798.449219 2475.355469 C 1798.449219 2475.355469 1810.929688 2482.488281 1819.390625 2482.488281 C 1827.859375 2482.488281 1982.289062 2485.382812 1986.53125 2482.488281 C 1990.761719 2479.59375 1994.328125 2477.585938 1994.328125 2477.585938 C 1994.328125 2477.585938 2036.441406 2481.152344 2041.121094 2479.371094 C 2045.800781 2477.585938 2048.03125 2474.910156 2048.03125 2474.910156 C 2048.03125 2474.910156 2111.988281 2478.253906 2122.238281 2473.796875 C 2132.488281 2469.339844 2142.289062 2455.972656 2146.308594 2445.273438 C 2150.320312 2434.578125 2171.710938 2403.824219 2179.730469 2395.359375 C 2484.640625 2073.492188 2102.890625 1338.21875 1730.921875 1304.761719 C 1646.691406 1297.191406 1558 1312.339844 1516.101562 1322.140625 C 1474.210938 1331.949219 1447.558594 1331.949219 1447.558594 1331.949219 C 1447.558594 1331.949219 1425.179688 1273.121094 1411.808594 1248.160156 C 1398.441406 1223.199219 1360.109375 1192 1360.109375 1192 C 1360.109375 1192 1385.070312 1169.71875 1394.871094 1146.539062 C 1404.679688 1123.371094 1403.789062 1071.671875 1418.050781 1060.078125 C 1432.308594 1048.488281 1437.851562 1041.359375 1447.558594 1036.910156 C 1565.21875 982.898438 1715.359375 412.800781 1553.539062 534.171875 C 1539.269531 544.871094 1524.121094 565.371094 1524.121094 565.371094 C 1499.859375 467.53125 1393.761719 523.949219 1299.011719 662.449219 C 1201.488281 804.988281 1139.058594 989.988281 1138.378906 994.351562 "/>
<path fill-rule="evenodd" fill="#291263" fill-opacity="1" d="M 1047.171875 1160.78125 C 1041.820312 1161.300781 1035.371094 1160.851562 1029.878906 1162.140625 C 1014.101562 1165.820312 999.957031 1179.140625 996.695312 1192.761719 C 994.734375 1200.941406 995.023438 1210.921875 995.023438 1210.921875 C 995.023438 1210.921875 1002.378906 1163.898438 1047.171875 1160.78125 "/>
<path fill-rule="evenodd" fill="#291263" fill-opacity="1" d="M 1011.851562 1195.769531 C 1011.851562 1195.769531 1000.050781 1194.601562 997.527344 1198.390625 C 995.007812 1202.171875 998.308594 1194.429688 998.308594 1194.429688 C 998.308594 1194.429688 1001.480469 1192.871094 1011.851562 1195.769531 "/>
<path fill-rule="evenodd" fill="#291263" fill-opacity="1" d="M 1102.019531 1199.621094 C 1101 1203.320312 1100.960938 1208.648438 1100.761719 1210.921875 C 1100.46875 1214.191406 1099.691406 1215.191406 1104.328125 1214.320312 C 1109.109375 1213.410156 1106.660156 1209.078125 1107.949219 1206.179688 C 1108.398438 1205.179688 1109.398438 1201.230469 1109.621094 1199.78125 C 1110.398438 1194.75 1104.011719 1192.460938 1102.019531 1199.621094 Z M 1099.300781 1220.21875 C 1096.171875 1232.929688 1088.960938 1237.980469 1076.03125 1246.238281 C 1076.03125 1246.238281 1089.058594 1240.890625 1091.851562 1238.441406 C 1095.988281 1234.800781 1107 1224.269531 1107 1218.71875 C 1107 1217.058594 1106.738281 1216.519531 1104.660156 1216.988281 C 1102.710938 1217.441406 1101.890625 1217.941406 1101.890625 1219.109375 C 1101.890625 1219.710938 1100.730469 1220.101562 1099.300781 1220.21875 "/>
<path fill-rule="evenodd" fill="#291263" fill-opacity="1" d="M 1047.171875 1181.949219 C 1039.910156 1181.070312 1043.421875 1182.71875 1041.710938 1184.089844 C 1041.140625 1184.550781 1031.691406 1184.410156 1030.398438 1184.820312 C 1025.699219 1186.308594 1026.441406 1193.609375 1027.390625 1194.429688 C 1028.398438 1195.289062 1028.929688 1198.75 1030.039062 1199.429688 C 1031.078125 1200.070312 1032.320312 1199.960938 1034.570312 1199.230469 C 1034.730469 1199.179688 1034.890625 1198.210938 1035.050781 1198.160156 C 1037.621094 1197.441406 1038.789062 1198.011719 1040.179688 1196.71875 C 1041.570312 1195.429688 1041.410156 1195.148438 1043.96875 1194.988281 C 1046.53125 1194.820312 1047.648438 1195.148438 1048.820312 1194.011719 C 1049.988281 1192.871094 1050.039062 1190.421875 1049.429688 1189.859375 C 1048.820312 1189.300781 1047.171875 1189.300781 1047.171875 1187.578125 C 1047.171875 1185.851562 1049.808594 1181.941406 1047.171875 1181.949219 Z M 1033.300781 1191.929688 C 1032.558594 1191.929688 1031.960938 1192.53125 1031.960938 1193.269531 C 1031.960938 1194 1032.558594 1194.601562 1033.300781 1194.601562 C 1034.039062 1194.601562 1034.640625 1194 1034.640625 1193.269531 C 1034.640625 1192.53125 1034.039062 1191.929688 1033.300781 1191.929688 Z M 1043.339844 1186.988281 C 1042.628906 1186.988281 1042.050781 1187.589844 1042.050781 1188.328125 C 1042.050781 1189.070312 1042.628906 1189.671875 1043.339844 1189.671875 C 1044.058594 1189.671875 1044.640625 1189.070312 1044.640625 1188.328125 C 1044.640625 1187.589844 1044.058594 1186.988281 1043.339844 1186.988281 "/>
<path fill-rule="evenodd" fill="#291263" fill-opacity="1" d="M 1076.03125 1236.28125 C 1092.859375 1222.628906 1093.289062 1195.078125 1093.289062 1195.078125 C 1093.289062 1195.078125 1098.921875 1221.679688 1076.03125 1236.28125 "/>
<path fill-rule="evenodd" fill="#291263" fill-opacity="1" d="M 1049.808594 1177.148438 C 1040.878906 1177.609375 1034.949219 1177.679688 1027.011719 1182.078125 C 1027.011719 1182.078125 1035.949219 1178.660156 1049.808594 1177.148438 "/>
<path fill-rule="evenodd" fill="#291263" fill-opacity="1" d="M 1093.898438 1175.578125 C 1087.398438 1167.601562 1073.039062 1160.78125 1062.949219 1160.78125 C 1062.949219 1160.78125 1084.960938 1157.980469 1093.898438 1175.578125 "/>
<path fill-rule="evenodd" fill="#291263" fill-opacity="1" d="M 1086.191406 1176.308594 C 1086.191406 1176.308594 1086.238281 1168.121094 1084.238281 1166.671875 C 1082.230469 1165.21875 1086.800781 1168.101562 1086.800781 1168.101562 C 1086.800781 1168.101562 1086.800781 1172.738281 1086.191406 1176.308594 "/>
<path fill-rule="evenodd" fill="#291263" fill-opacity="1" d="M 1062.679688 1248.058594 C 1044.46875 1248.890625 1023.820312 1238.769531 1010.660156 1243.039062 C 1001.449219 1246.019531 988.554688 1252.820312 993.484375 1250.851562 C 1021.320312 1239.730469 1044.21875 1254.128906 1062.679688 1248.058594 "/>
<path fill-rule="evenodd" fill="#291263" fill-opacity="1" d="M 1013.820312 1237.140625 C 1013.820312 1237.140625 1008.078125 1245.410156 1006.078125 1246 C 1004.070312 1246.589844 1015.539062 1246.511719 1013.820312 1237.140625 "/>
<path fill-rule="evenodd" fill="#291263" fill-opacity="1" d="M 1030.199219 1246.210938 C 1025.28125 1250.320312 1023.21875 1251.679688 1016.828125 1252.269531 C 1016.828125 1252.269531 1020.308594 1250.828125 1023.101562 1249.25 C 1025.339844 1247.980469 1026.941406 1246.578125 1027.359375 1245.96875 C 1028.308594 1244.609375 1030.199219 1246.210938 1030.199219 1246.210938 "/>
<path fill-rule="evenodd" fill="#291263" fill-opacity="1" d="M 1026.71875 1247.871094 L 1025.769531 1252.269531 C 1025.769531 1252.269531 1024.019531 1249.148438 1026.71875 1247.871094 "/>
</svg>
