<?xml version="1.0" encoding="UTF-8"?>
<svg xmlns="http://www.w3.org/2000/svg" xmlns:xlink="http://www.w3.org/1999/xlink" width="5000" height="5000" viewBox="0 0 5000 5000">

<path fill-rule="evenodd" fill="#8461c9" fill-opacity="1" d="M 2360.300781 2488.480469 C 2360.53125 2495.609375 2355.621094 2501.878906 2348.628906 2503.371094 C 2328.359375 2507.679688 2287.238281 2516.421875 2262.441406 2521.691406 C 2249.871094 2524.371094 2236.910156 2519.320312 2229.460938 2508.851562 C 2081.679688 2298.390625 2090.011719 1959.519531 2097.679688 1845.308594 C 2099.761719 1815.011719 2099.488281 1784.601562 2096.890625 1754.351562 C 2008.351562 726.429688 1528.878906 467.058594 1412.589844 418.890625 C 1397.890625 412.871094 1380.988281 418.339844 1372.589844 431.828125 C 1091.859375 884.671875 1217.070312 2112.390625 2109.308594 2542.171875 C 2113.140625 2544 2115.660156 2547.78125 2115.878906 2552.019531 C 2116.101562 2556.261719 2113.988281 2560.28125 2110.371094 2562.5 C 2072.28125 2585.808594 2037.578125 2605.359375 2024.339844 2612.730469 C 2020.558594 2614.808594 2016.320312 2615.898438 2012.011719 2615.898438 C 1171.289062 2613.949219 892.210938 907 1342.761719 295.648438 C 1347.328125 289.519531 1355.550781 287.398438 1362.511719 290.570312 C 1472.289062 342.519531 2305.320312 791.921875 2360.300781 2488.480469 "/>
<path fill-rule="evenodd" fill="#8461c9" fill-opacity="1" d="M 3375.441406 3407.851562 C 3374.671875 3405.511719 3375.941406 3402.988281 3378.28125 3402.21875 C 3380.621094 3401.441406 3383.148438 3402.71875 3383.921875 3405.058594 C 3432.78125 3520.789062 3507.558594 3657.371094 3565.96875 3802.128906 C 3600.398438 3887.421875 3628.179688 3974.710938 3643.378906 4061.054688 C 3654.691406 4125.289062 3657.941406 4188.777344 3651.578125 4250.199219 C 3642.449219 4338.324219 3612.078125 4421.859375 3555.921875 4496.730469 C 3491.191406 4583.035156 3389.308594 4657.066406 3239.621094 4712.699219 L 3237.03125 4713.632812 C 3236.921875 4713.675781 3236.800781 4713.71875 3236.679688 4713.757812 C 3220.480469 4719.371094 3073.480469 4769.089844 2919.71875 4769.652344 C 2841.230469 4769.941406 2761.308594 4757.464844 2693.808594 4723.613281 C 2659.011719 4706.523438 2644.628906 4664.390625 2661.71875 4629.589844 C 2678.808594 4594.789062 2720.941406 4580.410156 2755.738281 4597.5 C 2804.421875 4620.898438 2862.058594 4626.804688 2918.191406 4625.816406 C 3049.210938 4623.507812 3173.980469 4579.886719 3187.371094 4575.074219 L 3188.660156 4574.601562 C 3330.199219 4523.019531 3417.761719 4452.175781 3468.25 4368.207031 C 3494.070312 4325.28125 3510.78125 4279.621094 3520.070312 4231.25 C 3544.308594 4104.96875 3523.730469 3964.851562 3490.128906 3826.359375 C 3453.570312 3675.660156 3404.738281 3529.160156 3375.441406 3407.851562 "/>
<path fill-rule="evenodd" fill="#8461c9" fill-opacity="1" d="M 1773.96875 4712.796875 L 1773.921875 4712.777344 C 1592.601562 4645.210938 1481.328125 4550.472656 1420.269531 4440.453125 C 1387.21875 4380.898438 1368.148438 4316.890625 1361.351562 4250.273438 C 1355.070312 4188.757812 1358.148438 4125.183594 1369.480469 4060.855469 C 1384.699219 3974.410156 1412.609375 3887.03125 1447.121094 3801.648438 C 1505.71875 3656.71875 1580.691406 3520.019531 1629.558594 3404.25 C 1630.328125 3401.910156 1632.859375 3400.628906 1635.199219 3401.398438 C 1637.539062 3402.171875 1638.808594 3404.699219 1638.039062 3407.039062 C 1608.859375 3528.421875 1560.058594 3675.128906 1523.460938 3826.058594 C 1489.839844 3964.640625 1469.21875 4104.859375 1493.441406 4231.234375 C 1502.71875 4279.621094 1519.378906 4325.316406 1545.199219 4368.265625 C 1595.71875 4452.296875 1683.359375 4523.199219 1825.078125 4574.832031 C 1825.101562 4574.839844 1825.121094 4574.847656 1825.148438 4574.859375 L 1825.441406 4574.96875 C 1829.320312 4576.433594 1926.871094 4612.800781 2042.199219 4622.824219 C 2109.289062 4628.65625 2183.039062 4626.574219 2245.941406 4599.085938 C 2281.339844 4583.269531 2322.921875 4599.171875 2338.738281 4634.574219 C 2354.550781 4669.972656 2338.648438 4711.554688 2303.25 4727.367188 C 2235.699219 4758.234375 2158.691406 4769.40625 2084.011719 4768.996094 C 1925.488281 4768.128906 1778.820312 4714.570312 1774.101562 4712.847656 C 1774.058594 4712.828125 1774.011719 4712.8125 1773.96875 4712.796875 "/>
<path fill-rule="evenodd" fill="#8461c9" fill-opacity="1" d="M 2262.691406 4645.011719 C 2250.449219 4632.867188 2250.371094 4613.066406 2262.511719 4600.820312 C 2274.648438 4588.574219 2294.460938 4588.492188 2306.699219 4600.636719 C 2306.699219 4600.636719 2343.179688 4617.148438 2401.101562 4627.171875 C 2419.558594 4630.363281 2439.679688 4630.140625 2462.371094 4630.613281 C 2476.351562 4630.902344 2491.03125 4629.914062 2506.75 4629.328125 C 2521.238281 4628.785156 2536.308594 4629.339844 2552.519531 4627.953125 C 2597.070312 4624.152344 2645.878906 4619.019531 2703.039062 4594.382812 C 2717.269531 4584.644531 2736.738281 4588.292969 2746.480469 4602.527344 C 2756.21875 4616.757812 2752.570312 4636.222656 2738.328125 4645.960938 C 2710.148438 4675.699219 2683.171875 4697.5625 2655.128906 4716.671875 C 2632.269531 4732.246094 2609.71875 4742.800781 2587.148438 4751.605469 C 2558.691406 4762.710938 2530.789062 4768.214844 2504.371094 4769.765625 C 2488.421875 4770.699219 2473.011719 4769.464844 2458.449219 4767.027344 C 2434.171875 4762.964844 2412.070312 4757.230469 2392.339844 4748.445312 C 2369.511719 4738.277344 2350.101562 4727.855469 2333.609375 4715.324219 C 2285.140625 4678.488281 2262.691406 4645.011719 2262.691406 4645.011719 "/>
<path fill-rule="evenodd" fill="#8461c9" fill-opacity="1" d="M 2594.308594 3985.789062 C 2605.378906 3980.878906 2615.71875 3974.460938 2625.039062 3966.710938 C 2662.558594 3935.398438 2679.808594 3924.328125 2710.648438 3906.5 C 2712.25 3905.570312 2714.039062 3905 2715.878906 3904.808594 C 2726.828125 3903.710938 2731.601562 3907.390625 2735.210938 3911.28125 C 2739.160156 3915.519531 2739.390625 3927.679688 2735.410156 3931.890625 C 2672.199219 4024.421875 2581.371094 4074.902344 2509.410156 4110.113281 C 2504.46875 4112.53125 2498.679688 4112.496094 2493.761719 4110.027344 C 2384.691406 4055.285156 2362.738281 4034.78125 2269.109375 3933.539062 C 2259.921875 3923.039062 2265.949219 3912.769531 2269.949219 3908.570312 C 2273.921875 3904.390625 2283.488281 3903.210938 2291.921875 3908.769531 C 2292 3908.820312 2292.078125 3908.871094 2292.160156 3908.921875 C 2324.539062 3928.289062 2329.128906 3930.761719 2392.300781 3978.421875 C 2397.011719 3981.96875 2402.109375 3984.96875 2407.511719 3987.359375 C 2482.441406 4020.566406 2513.671875 4021.691406 2594.308594 3985.789062 "/>
<path fill-rule="evenodd" fill="#8461c9" fill-opacity="1" d="M 2914.660156 4006.5625 C 2912.039062 4007.859375 2909.238281 4008.746094 2906.351562 4009.203125 C 2901.320312 4010.027344 2898.308594 4010.308594 2894.769531 4009.332031 C 2891.890625 4008.585938 2890.070312 4005.734375 2890.609375 4002.808594 C 2892.289062 3994.691406 2898.808594 3984.230469 2914.960938 3972.96875 C 2916.03125 3972.230469 2917.140625 3971.558594 2918.300781 3970.960938 C 3046.019531 3905.378906 3039.128906 3912.789062 3239.140625 3839.578125 C 3346.460938 3800.300781 3470.460938 3761.238281 3598.339844 3733.921875 C 3600.699219 3733.378906 3603.089844 3734.761719 3603.660156 3736.988281 C 3604.230469 3739.230469 3602.769531 3741.480469 3600.410156 3742.019531 C 3474.160156 3772.769531 3352.128906 3815.070312 3246.679688 3857.140625 C 3246.648438 3857.148438 3246.621094 3857.160156 3246.578125 3857.179688 C 3050.089844 3936.691406 3038.558594 3945.871094 2914.660156 4006.5625 "/>
<path fill-rule="evenodd" fill="#8461c9" fill-opacity="1" d="M 2978.988281 4054.792969 C 2976.199219 4055.589844 2973.320312 4055.964844 2970.421875 4055.902344 C 2965.378906 4055.832031 2962.359375 4055.585938 2959.128906 4054.066406 C 2956.359375 4052.8125 2955.058594 4049.597656 2956.199219 4046.773438 C 2959.480469 4039.101562 2967.96875 4029.988281 2986.050781 4021.792969 C 2987.210938 4021.269531 2988.398438 4020.820312 2989.621094 4020.453125 C 3128.078125 3978.53125 3119.828125 3984.601562 3330.78125 3947.941406 C 3443.980469 3928.261719 3573.5 3911.75 3704.53125 3907.460938 C 3706.960938 3907.351562 3709.03125 3909.121094 3709.148438 3911.410156 C 3709.269531 3913.710938 3707.390625 3915.671875 3704.96875 3915.78125 C 3574.859375 3923.730469 3446.628906 3943.769531 3334.730469 3966.511719 C 3334.699219 3966.519531 3334.660156 3966.519531 3334.628906 3966.53125 C 3125.859375 4010.015625 3112.75 4016.988281 2978.988281 4054.792969 "/>
<path fill-rule="evenodd" fill="#8461c9" fill-opacity="1" d="M 2940.488281 4171.902344 C 2935.480469 4171.207031 2931.589844 4167.78125 2930.269531 4163.453125 C 2929.421875 4160.78125 2930.601562 4157.882812 2933.070312 4156.5625 C 2940.039062 4152.789062 2946.320312 4153.210938 2957.71875 4153.316406 C 2958.691406 4153.324219 2959.671875 4153.40625 2960.628906 4153.566406 C 3017.910156 4162.929688 3021.789062 4162.136719 3126.519531 4200.933594 C 3176.691406 4219.515625 3234.871094 4244.148438 3298.050781 4276.605469 C 3299.78125 4277.445312 3300.46875 4279.457031 3299.578125 4281.09375 C 3298.691406 4282.730469 3296.570312 4283.378906 3294.839844 4282.539062 C 3230.589844 4253.183594 3171.679688 4231.351562 3121.03125 4215.175781 C 3011.019531 4180.039062 2940.488281 4171.902344 2940.488281 4171.902344 "/>
<path fill-rule="evenodd" fill="#8461c9" fill-opacity="1" d="M 2993.699219 4124.152344 C 2988.199219 4124.773438 2983.109375 4122.4375 2980.289062 4118.144531 C 2979.058594 4116.304688 2978.859375 4113.957031 2979.75 4111.933594 C 2983.441406 4103.28125 2988.160156 4101.605469 2998.488281 4098.480469 C 2999.910156 4098.050781 3001.378906 4097.78125 3002.859375 4097.691406 C 3215.761719 4084.273438 3258.320312 4081.429688 3513.71875 4086.445312 C 3515.121094 4086.472656 3516.519531 4086.515625 3517.921875 4086.574219 C 3638.789062 4091.859375 3761.488281 4104.902344 3863.300781 4131.625 C 3865.179688 4132.097656 3866.300781 4133.925781 3865.800781 4135.703125 C 3865.289062 4137.480469 3863.359375 4138.539062 3861.480469 4138.066406 C 3759.191406 4113.34375 3636.210938 4102.785156 3515.371094 4099.9375 C 3248.691406 4093.644531 2993.699219 4124.152344 2993.699219 4124.152344 "/>
<path fill-rule="evenodd" fill="#8461c9" fill-opacity="1" d="M 2084.5 4006.5625 C 2087.128906 4007.859375 2089.929688 4008.746094 2092.820312 4009.203125 C 2097.839844 4010.027344 2100.859375 4010.308594 2104.390625 4009.332031 C 2107.28125 4008.585938 2109.089844 4005.734375 2108.550781 4002.808594 C 2106.871094 3994.691406 2100.351562 3984.230469 2084.210938 3972.96875 C 2083.140625 3972.230469 2082.019531 3971.558594 2080.871094 3970.960938 C 1953.140625 3905.378906 1960.03125 3912.789062 1760.03125 3839.578125 C 1652.699219 3800.300781 1528.710938 3761.238281 1400.828125 3733.921875 C 1398.460938 3733.378906 1396.078125 3734.761719 1395.511719 3736.988281 C 1394.941406 3739.230469 1396.390625 3741.480469 1398.75 3742.019531 C 1525.011719 3772.769531 1647.039062 3815.070312 1752.480469 3857.140625 C 1752.519531 3857.148438 1752.550781 3857.160156 1752.578125 3857.179688 C 1949.078125 3936.691406 1960.609375 3945.871094 2084.5 4006.5625 "/>
<path fill-rule="evenodd" fill="#8461c9" fill-opacity="1" d="M 2020.179688 4054.792969 C 2022.960938 4055.589844 2025.851562 4055.964844 2028.738281 4055.902344 C 2033.789062 4055.832031 2036.800781 4055.585938 2040.03125 4054.066406 C 2042.808594 4052.8125 2044.101562 4049.597656 2042.960938 4046.773438 C 2039.679688 4039.101562 2031.191406 4029.988281 2013.121094 4021.792969 C 2011.960938 4021.269531 2010.761719 4020.820312 2009.550781 4020.453125 C 1871.089844 3978.53125 1879.339844 3984.601562 1668.378906 3947.941406 C 1555.191406 3928.261719 1425.660156 3911.75 1294.628906 3907.460938 C 1292.210938 3907.351562 1290.140625 3909.121094 1290.019531 3911.410156 C 1289.890625 3913.710938 1291.769531 3915.671875 1294.199219 3915.78125 C 1424.300781 3923.730469 1552.539062 3943.769531 1664.429688 3966.511719 C 1664.46875 3966.519531 1664.5 3966.519531 1664.539062 3966.53125 C 1873.308594 4010.015625 1886.410156 4016.988281 2020.179688 4054.792969 "/>
<path fill-rule="evenodd" fill="#8461c9" fill-opacity="1" d="M 2058.671875 4171.902344 C 2063.691406 4171.207031 2067.578125 4167.78125 2068.890625 4163.453125 C 2069.75 4160.78125 2068.570312 4157.882812 2066.089844 4156.5625 C 2059.128906 4152.789062 2052.839844 4153.210938 2041.449219 4153.316406 C 2040.46875 4153.324219 2039.5 4153.40625 2038.53125 4153.566406 C 1981.25 4162.929688 1977.371094 4162.136719 1872.648438 4200.933594 C 1822.480469 4219.515625 1764.289062 4244.148438 1701.109375 4276.605469 C 1699.378906 4277.445312 1698.691406 4279.457031 1699.578125 4281.09375 C 1700.46875 4282.730469 1702.601562 4283.378906 1704.328125 4282.539062 C 1768.578125 4253.183594 1827.480469 4231.351562 1878.140625 4215.175781 C 1988.148438 4180.039062 2058.671875 4171.902344 2058.671875 4171.902344 "/>
<path fill-rule="evenodd" fill="#8461c9" fill-opacity="1" d="M 2005.460938 4124.152344 C 2010.960938 4124.773438 2016.058594 4122.4375 2018.878906 4118.144531 C 2020.109375 4116.304688 2020.308594 4113.957031 2019.410156 4111.933594 C 2015.730469 4103.28125 2011.011719 4101.605469 2000.671875 4098.480469 C 1999.25 4098.050781 1997.789062 4097.78125 1996.300781 4097.691406 C 1783.398438 4084.273438 1740.851562 4081.429688 1485.441406 4086.445312 C 1484.039062 4086.472656 1482.648438 4086.515625 1481.25 4086.574219 C 1360.378906 4091.859375 1237.671875 4104.902344 1135.871094 4131.625 C 1133.988281 4132.097656 1132.871094 4133.925781 1133.371094 4135.703125 C 1133.871094 4137.480469 1135.800781 4138.539062 1137.679688 4138.066406 C 1239.96875 4113.34375 1362.960938 4102.785156 1483.800781 4099.9375 C 1750.480469 4093.644531 2005.460938 4124.152344 2005.460938 4124.152344 "/>
<path fill-rule="evenodd" fill="#8461c9" fill-opacity="1" d="M 2891.648438 3291.480469 C 2983.75 3291.480469 3058.519531 3390.96875 3058.519531 3513.511719 C 3058.519531 3636.050781 2983.75 3735.539062 2891.648438 3735.539062 C 2799.550781 3735.539062 2724.78125 3636.050781 2724.78125 3513.511719 C 2724.78125 3390.96875 2799.550781 3291.480469 2891.648438 3291.480469 Z M 2844.261719 3355.320312 C 2819.199219 3351.449219 2801.550781 3365.03125 2780.011719 3394.03125 C 2774.558594 3401.320312 2770.328125 3409.359375 2767.441406 3417.851562 C 2755.398438 3453.148438 2745.269531 3495.089844 2766.769531 3506.519531 C 2768.800781 3507.601562 2771.210938 3507.820312 2773.410156 3507.140625 C 2793.488281 3501.058594 2798.578125 3491.371094 2803.578125 3458.601562 C 2803.820312 3457.03125 2804.160156 3455.480469 2804.578125 3453.949219 C 2809.070312 3437.898438 2810.941406 3434.03125 2817.648438 3423.761719 C 2817.949219 3423.300781 2818.261719 3422.851562 2818.601562 3422.410156 C 2834.898438 3400.960938 2849.921875 3383.328125 2853.78125 3368.941406 C 2854.570312 3365.929688 2854 3362.738281 2852.191406 3360.148438 C 2850.378906 3357.558594 2847.5 3355.808594 2844.261719 3355.320312 "/>
<path fill-rule="evenodd" fill="#8461c9" fill-opacity="1" d="M 2938.039062 3389.941406 C 2927.878906 3393.359375 2916.871094 3387.878906 2913.449219 3377.71875 C 2910.039062 3367.558594 2915.511719 3356.550781 2925.671875 3353.128906 C 2925.671875 3353.128906 2949.578125 3348.328125 2982.339844 3320.699219 C 2997.53125 3307.890625 3014.191406 3291.109375 3031.449219 3268.070312 C 3032.230469 3266.738281 3033.949219 3266.300781 3035.28125 3267.078125 C 3036.609375 3267.859375 3037.058594 3269.570312 3036.28125 3270.898438 C 3020.878906 3305.628906 3003.949219 3330.101562 2988.789062 3347.988281 C 2960.980469 3380.789062 2938.039062 3389.941406 2938.039062 3389.941406 "/>
<path fill-rule="evenodd" fill="#8461c9" fill-opacity="1" d="M 2951.828125 3393.46875 C 2941.261719 3393.890625 2932.339844 3385.648438 2931.929688 3375.078125 C 2931.511719 3364.511719 2939.738281 3355.589844 2950.308594 3355.179688 C 2950.308594 3355.179688 2974.929688 3357.191406 3015.179688 3339.789062 C 3033.710938 3331.78125 3054.878906 3320.390625 3078.539062 3303.230469 C 3079.660156 3302.210938 3081.410156 3302.289062 3082.429688 3303.421875 C 3083.460938 3304.539062 3083.371094 3306.289062 3082.25 3307.308594 C 3056.78125 3336.121094 3033.058594 3354.769531 3013.078125 3367.601562 C 2976.460938 3391.109375 2951.828125 3393.46875 2951.828125 3393.46875 "/>
<path fill-rule="evenodd" fill="#8461c9" fill-opacity="1" d="M 2945.261719 3400 C 2935.410156 3396.789062 2930.011719 3386.191406 2933.21875 3376.339844 C 2936.429688 3366.488281 2947.03125 3361.089844 2956.878906 3364.300781 C 2956.878906 3364.300781 2979.390625 3374.648438 3024.089844 3372.210938 C 3044.460938 3371.101562 3068.570312 3367.761719 3097.148438 3359.980469 C 3098.539062 3359.441406 3100.109375 3360.121094 3100.648438 3361.511719 C 3101.191406 3362.898438 3100.5 3364.46875 3099.109375 3365.011719 C 3064.609375 3382.910156 3035.570312 3392.058594 3012.199219 3397.089844 C 2969.089844 3406.359375 2945.261719 3400 2945.261719 3400 "/>
<path fill-rule="evenodd" fill="#8461c9" fill-opacity="1" d="M 2063.71875 3291.480469 C 2155.820312 3291.480469 2230.589844 3390.96875 2230.589844 3513.511719 C 2230.589844 3636.050781 2155.820312 3735.539062 2063.71875 3735.539062 C 1971.621094 3735.539062 1896.851562 3636.050781 1896.851562 3513.511719 C 1896.851562 3390.96875 1971.621094 3291.480469 2063.71875 3291.480469 Z M 2104.339844 3355.320312 C 2101.101562 3355.808594 2098.21875 3357.558594 2096.421875 3360.148438 C 2094.609375 3362.738281 2094.03125 3365.929688 2094.828125 3368.941406 C 2098.730469 3383.46875 2114 3401.308594 2130.5 3423.058594 C 2137.929688 3432.941406 2142.789062 3444.339844 2144.691406 3456.328125 C 2149.800781 3490.929688 2154.660156 3500.921875 2175.191406 3507.140625 C 2177.398438 3507.820312 2179.808594 3507.601562 2181.828125 3506.519531 C 2203.339844 3495.089844 2193.210938 3453.148438 2181.171875 3417.851562 C 2178.28125 3409.359375 2174.039062 3401.320312 2168.601562 3394.03125 C 2147.050781 3365.03125 2129.398438 3351.449219 2104.339844 3355.320312 "/>
<path fill-rule="evenodd" fill="#8461c9" fill-opacity="1" d="M 2029.691406 3353.128906 C 2039.851562 3356.550781 2045.328125 3367.558594 2041.921875 3377.71875 C 2038.5 3387.878906 2027.488281 3393.359375 2017.328125 3389.941406 C 2017.328125 3389.941406 1994.390625 3380.789062 1966.578125 3347.988281 C 1951.421875 3330.101562 1934.488281 3305.628906 1919.089844 3270.898438 C 1918.308594 3269.570312 1918.761719 3267.859375 1920.089844 3267.078125 C 1921.421875 3266.300781 1923.140625 3266.738281 1923.921875 3268.070312 C 1941.179688 3291.109375 1957.839844 3307.890625 1973.03125 3320.699219 C 2005.789062 3348.328125 2029.691406 3353.128906 2029.691406 3353.128906 "/>
<path fill-rule="evenodd" fill="#8461c9" fill-opacity="1" d="M 2005.058594 3355.179688 C 2015.628906 3355.589844 2023.859375 3364.511719 2023.441406 3375.078125 C 2023.03125 3385.648438 2014.109375 3393.890625 2003.539062 3393.46875 C 2003.539062 3393.46875 1978.910156 3391.109375 1942.289062 3367.601562 C 1922.308594 3354.769531 1898.589844 3336.121094 1873.121094 3307.308594 C 1872 3306.289062 1871.910156 3304.539062 1872.941406 3303.421875 C 1873.960938 3302.289062 1875.710938 3302.210938 1876.828125 3303.230469 C 1900.488281 3320.390625 1921.660156 3331.78125 1940.191406 3339.789062 C 1980.441406 3357.191406 2005.058594 3355.179688 2005.058594 3355.179688 "/>
<path fill-rule="evenodd" fill="#8461c9" fill-opacity="1" d="M 1998.488281 3364.300781 C 2008.339844 3361.089844 2018.941406 3366.488281 2022.148438 3376.339844 C 2025.359375 3386.191406 2019.960938 3396.789062 2010.109375 3400 C 2010.109375 3400 1986.269531 3406.359375 1943.171875 3397.089844 C 1919.800781 3392.058594 1890.761719 3382.910156 1856.261719 3365.011719 C 1854.871094 3364.46875 1854.179688 3362.898438 1854.71875 3361.511719 C 1855.261719 3360.121094 1856.828125 3359.441406 1858.21875 3359.980469 C 1886.800781 3367.761719 1910.910156 3371.101562 1931.28125 3372.210938 C 1975.980469 3374.648438 1998.488281 3364.300781 1998.488281 3364.300781 "/>
<path fill-rule="evenodd" fill="#8461c9" fill-opacity="1" d="M 2510.671875 4442.773438 C 2506.101562 4441.441406 2501.261719 4441.320312 2496.621094 4442.425781 C 2425.679688 4459.46875 2337.828125 4487.792969 2270.421875 4485.148438 C 2251.75 4484.402344 2237.988281 4482.796875 2228.449219 4481.296875 C 2225.339844 4480.785156 2222.289062 4479.988281 2219.339844 4478.917969 C 2215.628906 4477.597656 2212.960938 4476.460938 2211.050781 4474.925781 C 2209.351562 4473.574219 2208.628906 4471.425781 2209.191406 4469.402344 C 2209.761719 4467.378906 2211.5 4465.839844 2213.671875 4465.445312 C 2214.300781 4465.414062 2214.941406 4465.382812 2215.589844 4465.441406 C 2215.589844 4465.441406 2302.21875 4468.277344 2379.289062 4427.007812 C 2405.679688 4412.878906 2430.691406 4393.324219 2450.929688 4366.179688 C 2451.140625 4365.890625 2451.359375 4365.605469 2451.589844 4365.320312 C 2480.761719 4327.824219 2486.378906 4299.398438 2481.03125 4212.339844 C 2480.941406 4210.957031 2481.050781 4209.570312 2481.359375 4208.21875 C 2485.710938 4189.304688 2501.089844 4188.46875 2501.179688 4188.460938 C 2509.910156 4188.75 2519.011719 4193.609375 2522.109375 4208.308594 C 2522.390625 4209.640625 2522.511719 4211.007812 2522.46875 4212.371094 C 2519.988281 4283.179688 2523.96875 4316.636719 2547.03125 4358.621094 C 2550.050781 4364.128906 2553.640625 4369.300781 2557.75 4374.054688 C 2577.191406 4396.613281 2601.800781 4411.234375 2625.539062 4423.949219 C 2702.621094 4465.21875 2786.78125 4465.492188 2786.78125 4465.492188 C 2787.429688 4465.433594 2788.070312 4465.460938 2788.699219 4465.496094 C 2790.871094 4465.886719 2792.609375 4467.425781 2793.171875 4469.449219 C 2793.730469 4471.476562 2793.011719 4473.625 2791.320312 4474.972656 C 2789.410156 4476.511719 2786.738281 4477.648438 2783.03125 4478.96875 C 2780.078125 4480.039062 2777.03125 4480.835938 2773.921875 4481.347656 C 2764.371094 4482.84375 2750.621094 4484.449219 2731.949219 4485.199219 C 2670.910156 4487.59375 2541.988281 4451.777344 2510.671875 4442.773438 "/>
<path fill-rule="evenodd" fill="#8461c9" fill-opacity="1" d="M 2765.621094 3963.109375 C 2774.46875 3963.109375 2781.648438 3969.898438 2781.648438 3978.269531 C 2781.648438 3986.640625 2774.46875 3993.429688 2765.621094 3993.429688 C 2756.769531 3993.429688 2749.578125 3986.640625 2749.578125 3978.269531 C 2749.578125 3969.898438 2756.769531 3963.109375 2765.621094 3963.109375 "/>
<path fill-rule="evenodd" fill="#8461c9" fill-opacity="1" d="M 2649.53125 4079.40625 C 2658.378906 4079.40625 2665.558594 4086.199219 2665.558594 4094.566406 C 2665.558594 4102.933594 2658.378906 4109.722656 2649.53125 4109.722656 C 2640.679688 4109.722656 2633.488281 4102.933594 2633.488281 4094.566406 C 2633.488281 4086.199219 2640.679688 4079.40625 2649.53125 4079.40625 "/>
<path fill-rule="evenodd" fill="#8461c9" fill-opacity="1" d="M 2743.089844 4168.972656 C 2751.941406 4168.972656 2759.128906 4175.765625 2759.128906 4184.128906 C 2759.128906 4192.496094 2751.941406 4199.289062 2743.089844 4199.289062 C 2734.238281 4199.289062 2727.058594 4192.496094 2727.058594 4184.128906 C 2727.058594 4175.765625 2734.238281 4168.972656 2743.089844 4168.972656 "/>
<path fill-rule="evenodd" fill="#8461c9" fill-opacity="1" d="M 2834.929688 4205.53125 C 2843.769531 4205.53125 2850.960938 4212.324219 2850.960938 4220.691406 C 2850.960938 4229.054688 2843.769531 4235.847656 2834.929688 4235.847656 C 2826.078125 4235.847656 2818.890625 4229.054688 2818.890625 4220.691406 C 2818.890625 4212.324219 2826.078125 4205.53125 2834.929688 4205.53125 "/>
<path fill-rule="evenodd" fill="#8461c9" fill-opacity="1" d="M 2150.609375 4199.289062 C 2159.460938 4199.289062 2166.640625 4206.078125 2166.640625 4214.445312 C 2166.640625 4222.8125 2159.460938 4229.601562 2150.609375 4229.601562 C 2141.761719 4229.601562 2134.570312 4222.8125 2134.570312 4214.445312 C 2134.570312 4206.078125 2141.761719 4199.289062 2150.609375 4199.289062 "/>
<path fill-rule="evenodd" fill="#8461c9" fill-opacity="1" d="M 2802.859375 4085.128906 C 2811.710938 4085.128906 2818.890625 4091.921875 2818.890625 4100.285156 C 2818.890625 4108.652344 2811.710938 4115.441406 2802.859375 4115.441406 C 2794.011719 4115.441406 2786.820312 4108.652344 2786.820312 4100.285156 C 2786.820312 4091.921875 2794.011719 4085.128906 2802.859375 4085.128906 "/>
<path fill-rule="evenodd" fill="#8461c9" fill-opacity="1" d="M 2951.019531 4107.253906 C 2959.871094 4107.253906 2967.050781 4114.046875 2967.050781 4122.410156 C 2967.050781 4130.777344 2959.871094 4137.570312 2951.019531 4137.570312 C 2942.171875 4137.570312 2934.980469 4130.777344 2934.980469 4122.410156 C 2934.980469 4114.046875 2942.171875 4107.253906 2951.019531 4107.253906 "/>
<path fill-rule="evenodd" fill="#8461c9" fill-opacity="1" d="M 2867.851562 4011.445312 C 2876.699219 4011.445312 2883.878906 4018.238281 2883.878906 4026.601562 C 2883.878906 4034.96875 2876.699219 4041.761719 2867.851562 4041.761719 C 2859 4041.761719 2851.808594 4034.96875 2851.808594 4026.601562 C 2851.808594 4018.238281 2859 4011.445312 2867.851562 4011.445312 "/>
<path fill-rule="evenodd" fill="#8461c9" fill-opacity="1" d="M 2235.410156 3963.109375 C 2226.558594 3963.109375 2219.371094 3969.898438 2219.371094 3978.269531 C 2219.371094 3986.640625 2226.558594 3993.429688 2235.410156 3993.429688 C 2244.261719 3993.429688 2251.441406 3986.640625 2251.441406 3978.269531 C 2251.441406 3969.898438 2244.261719 3963.109375 2235.410156 3963.109375 "/>
<path fill-rule="evenodd" fill="#8461c9" fill-opacity="1" d="M 2351.5 4079.40625 C 2342.648438 4079.40625 2335.46875 4086.199219 2335.46875 4094.566406 C 2335.46875 4102.933594 2342.648438 4109.722656 2351.5 4109.722656 C 2360.351562 4109.722656 2367.53125 4102.933594 2367.53125 4094.566406 C 2367.53125 4086.199219 2360.351562 4079.40625 2351.5 4079.40625 "/>
<path fill-rule="evenodd" fill="#8461c9" fill-opacity="1" d="M 2271.789062 4153.8125 C 2262.949219 4153.8125 2255.761719 4160.605469 2255.761719 4168.972656 C 2255.761719 4177.339844 2262.949219 4184.128906 2271.789062 4184.128906 C 2280.640625 4184.128906 2287.828125 4177.339844 2287.828125 4168.972656 C 2287.828125 4160.605469 2280.640625 4153.8125 2271.789062 4153.8125 "/>
<path fill-rule="evenodd" fill="#8461c9" fill-opacity="1" d="M 2192.96875 4069.96875 C 2184.121094 4069.96875 2176.941406 4076.761719 2176.941406 4085.128906 C 2176.941406 4093.492188 2184.121094 4100.285156 2192.96875 4100.285156 C 2201.820312 4100.285156 2209.011719 4093.492188 2209.011719 4085.128906 C 2209.011719 4076.761719 2201.820312 4069.96875 2192.96875 4069.96875 "/>
<path fill-rule="evenodd" fill="#8461c9" fill-opacity="1" d="M 2050.011719 4107.253906 C 2041.160156 4107.253906 2033.96875 4114.046875 2033.96875 4122.410156 C 2033.96875 4130.777344 2041.160156 4137.570312 2050.011719 4137.570312 C 2058.859375 4137.570312 2066.039062 4130.777344 2066.039062 4122.410156 C 2066.039062 4114.046875 2058.859375 4107.253906 2050.011719 4107.253906 "/>
<path fill-rule="evenodd" fill="#8461c9" fill-opacity="1" d="M 2141.839844 4011.445312 C 2132.988281 4011.445312 2125.808594 4018.238281 2125.808594 4026.601562 C 2125.808594 4034.96875 2132.988281 4041.761719 2141.839844 4041.761719 C 2150.691406 4041.761719 2157.878906 4034.96875 2157.878906 4026.601562 C 2157.878906 4018.238281 2150.691406 4011.445312 2141.839844 4011.445312 "/>
<path fill-rule="evenodd" fill="#8461c9" fill-opacity="1" d="M 2039.828125 2432.671875 C 2036.859375 2434.140625 2033.28125 2433.558594 2030.941406 2431.21875 C 1978.878906 2377.691406 1422.28125 1785.589844 1520.71875 1033.039062 C 1521.109375 1030.078125 1523.148438 1027.601562 1525.988281 1026.640625 C 1528.820312 1025.679688 1531.949219 1026.410156 1534.058594 1028.519531 C 1602.078125 1099.539062 1958.851562 1499.691406 1995.109375 2115.128906 C 1995.148438 2115.710938 1995.171875 2116.289062 1995.191406 2116.871094 C 1995.808594 2133.210938 2004.230469 2286.328125 2099.390625 2391.550781 C 2101.089844 2393.410156 2101.820312 2395.949219 2101.359375 2398.421875 C 2100.898438 2400.890625 2099.308594 2403 2097.058594 2404.121094 C 2081.589844 2411.851562 2051.671875 2426.761719 2039.828125 2432.671875 "/>
<path fill-rule="evenodd" fill="#8461c9" fill-opacity="1" d="M 2631.941406 2488.480469 C 2631.710938 2495.609375 2636.621094 2501.878906 2643.609375 2503.371094 C 2663.878906 2507.679688 2705 2516.421875 2729.800781 2521.691406 C 2742.371094 2524.371094 2755.328125 2519.320312 2762.78125 2508.851562 C 2910.558594 2298.390625 2902.230469 1959.519531 2894.558594 1845.308594 C 2892.480469 1815.011719 2892.738281 1784.601562 2895.339844 1754.351562 C 2983.890625 726.429688 3463.359375 467.058594 3579.640625 418.890625 C 3594.351562 412.871094 3611.25 418.339844 3619.648438 431.828125 C 3900.378906 884.671875 3775.160156 2112.390625 2882.929688 2542.171875 C 2879.101562 2544 2876.578125 2547.78125 2876.359375 2552.019531 C 2876.140625 2556.261719 2878.25 2560.28125 2881.871094 2562.5 C 2919.960938 2585.808594 2954.648438 2605.359375 2967.898438 2612.730469 C 2971.679688 2614.808594 2975.921875 2615.898438 2980.230469 2615.898438 C 3820.949219 2613.949219 4100.03125 907 3649.480469 295.648438 C 3644.910156 289.519531 3636.691406 287.398438 3629.730469 290.570312 C 3519.949219 342.519531 2686.921875 791.921875 2631.941406 2488.480469 "/>
<path fill-rule="evenodd" fill="#8461c9" fill-opacity="1" d="M 2952.410156 2432.671875 C 2955.378906 2434.140625 2958.960938 2433.558594 2961.300781 2431.21875 C 3013.359375 2377.691406 3569.960938 1785.589844 3471.519531 1033.039062 C 3471.128906 1030.078125 3469.089844 1027.601562 3466.25 1026.640625 C 3463.421875 1025.679688 3460.289062 1026.410156 3458.179688 1028.519531 C 3390.160156 1099.539062 3033.390625 1499.691406 2997.121094 2115.128906 C 2997.089844 2115.710938 2997.070312 2116.289062 2997.050781 2116.871094 C 2996.429688 2133.210938 2988.011719 2286.328125 2892.851562 2391.550781 C 2891.148438 2393.410156 2890.421875 2395.949219 2890.878906 2398.421875 C 2891.339844 2400.890625 2892.929688 2403 2895.179688 2404.121094 C 2910.648438 2411.851562 2940.570312 2426.761719 2952.410156 2432.671875 "/>
<path fill-rule="evenodd" fill="#8461c9" fill-opacity="1" d="M 1776.699219 2834.660156 C 1773 2842.808594 1763.390625 2846.421875 1755.238281 2842.71875 C 1747.089844 2839.019531 1743.480469 2829.410156 1747.179688 2821.261719 C 1747.179688 2821.261719 1772.78125 2747.960938 1840.171875 2666.878906 C 1890.160156 2606.738281 1962.988281 2544.519531 2063.421875 2503.730469 C 2128.839844 2477.160156 2205.941406 2461.039062 2295.648438 2462.160156 C 2357.53125 2462.921875 2425.148438 2473.828125 2499.160156 2494.328125 C 2521.109375 2486.421875 2556.210938 2475.558594 2599.710938 2468.269531 C 2681.800781 2454.53125 2793.589844 2450.671875 2897.929688 2495.960938 C 3002.710938 2541.429688 3102.019531 2632.488281 3151.171875 2812.46875 C 3154.289062 2820.851562 3150.019531 2830.199219 3141.640625 2833.320312 C 3133.261719 2836.449219 3123.910156 2832.179688 3120.789062 2823.800781 C 3052.058594 2680.578125 2958.339844 2617.570312 2864.269531 2592.890625 C 2805.359375 2577.429688 2747.070312 2579.929688 2695.460938 2586.78125 C 2601.871094 2599.210938 2531.589844 2632.480469 2531.589844 2632.480469 C 2515.589844 2639.679688 2497.480469 2640.628906 2480.808594 2635.148438 C 2410.699219 2610.039062 2346.769531 2596.910156 2288.570312 2591.230469 C 2215.488281 2584.109375 2151.871094 2588.359375 2095.828125 2602.460938 C 1877.679688 2657.320312 1776.699219 2834.660156 1776.699219 2834.660156 "/>
</svg>
